<?xml version="1.0" encoding="UTF-8"?>
<svg width="100" height="100" viewBox="0 0 100 100" xmlns="http://www.w3.org/2000/svg">
  <!-- 小龙虾身体 -->
  <ellipse cx="50" cy="60" rx="25" ry="18" fill="#FF4400"/>
  <ellipse cx="50" cy="40" rx="18" ry="15" fill="#FF5511"/>
  
  <!-- 小龙虾头部 -->
  <circle cx="50" cy="25" r="12" fill="#FF6622"/>
  
  <!-- 眼睛 -->
  <circle cx="44" cy="22" r="2.5" fill="white"/>
  <circle cx="56" cy="22" r="2.5" fill="white"/>
  <circle cx="44" cy="22" r="1.2" fill="black"/>
  <circle cx="56" cy="22" r="1.2" fill="black"/>
  
  <!-- 大钳子 -->
  <ellipse cx="20" cy="45" rx="10" ry="6" fill="#FF7733" transform="rotate(-30 20 45)"/>
  <ellipse cx="80" cy="45" rx="10" ry="6" fill="#FF7733" transform="rotate(30 80 45)"/>
  <ellipse cx="12" cy="52" rx="5" ry="4" fill="#FF8844" transform="rotate(-30 12 52)"/>
  <ellipse cx="88" cy="52" rx="5" ry="4" fill="#FF8844" transform="rotate(30 88 52)"/>
  
  <!-- 尾巴 -->
  <path d="M35 72 L28 82 L42 78 L50 85 L58 78 L72 82 L65 72" fill="#FF3300"/>
  
  <!-- 小腿 -->
  <rect x="32" y="68" width="4" height="12" rx="2" fill="#FF6622" transform="rotate(-20 32 68)"/>
  <rect x="40" y="72" width="4" height="10" rx="2" fill="#FF6622" transform="rotate(-10 40 72)"/>
  <rect x="56" y="72" width="4" height="10" rx="2" fill="#FF6622" transform="rotate(10 56 72)"/>
  <rect x="64" y="68" width="4" height="12" rx="2" fill="#FF6622" transform="rotate(20 64 68)"/>
  
  <!-- 触角 -->
  <path d="M40 15 Q30 5 25 0" stroke="#FF5511" stroke-width="2" fill="none"/>
  <path d="M60 15 Q70 5 75 0" stroke="#FF5511" stroke-width="2" fill="none"/>
</svg>
